<svg width="24" height="24" viewBox="0 0 24 24" fill="none" xmlns="http://www.w3.org/2000/svg">
<g opacity="0.8">
<path fill-rule="evenodd" clip-rule="evenodd" d="M11.23 14.1047C11.23 14.5422 11.57 14.8881 12 14.8881C12.42 14.8881 12.77 14.5422 12.77 14.1047L12.77 8L17.55 8C20 8 22 10.0247 22 12.5276L22 17.4826C22 19.9753 20.01 22 17.56 22L6.45 22C3.99 22 2 19.9651 2 17.4724L2 12.5073C2 10.0247 3.99 8 6.44 8L11.23 8L11.23 14.1047ZM8.5402 4.3698L11.4502 1.4498C11.6002 1.2998 11.7902 1.2198 12.0002 1.2198C12.2002 1.2198 12.4002 1.2998 12.5402 1.4498L15.4502 4.3698C15.6002 4.5198 15.6802 4.7198 15.6802 4.9098C15.6802 5.1098 15.6002 5.3098 15.4502 5.4598C15.1502 5.7598 14.6602 5.7598 14.3602 5.4598L12.7702 3.8598L12.7702 7.9998L11.2302 7.9998L11.2302 3.8598L9.6402 5.4598C9.3402 5.7598 8.8502 5.7598 8.5502 5.4598C8.2402 5.1598 8.2402 4.6698 8.5402 4.3698Z" fill="white"/>
</g>
</svg>
